<?xml version="1.0" encoding="UTF-8"?>
<svg xmlns="http://www.w3.org/2000/svg" xmlns:xlink="http://www.w3.org/1999/xlink" width="24pt" height="24pt" viewBox="0 0 24 24" version="1.1">
<g id="surface246039">
<path style=" stroke:none;fill-rule:nonzero;fill:rgb(100%,100%,100%);fill-opacity:1;" d="M 12.003906 2 C 6.492188 2 2 6.488281 2 12 C 2 17.511719 6.492188 22 12.003906 22 C 12.378906 22 12.75 21.980469 13.121094 21.9375 C 13.707031 21.871094 14.105469 21.304688 13.976562 20.734375 L 13.96875 20.703125 C 13.859375 20.199219 13.382812 19.871094 12.875 19.9375 C 12.585938 19.976562 12.292969 20 12.003906 20 C 7.570312 20 4.003906 16.429688 4.003906 12 C 4.003906 7.570312 7.570312 4 12.003906 4 C 13.492188 4 14.878906 4.410156 16.070312 5.117188 L 15.167969 6.019531 C 14.808594 6.378906 15.0625 7 15.574219 7 L 19.425781 7 C 19.742188 7 20 6.742188 20 6.425781 L 20 2.578125 C 20 2.0625 19.378906 1.808594 19.015625 2.171875 L 17.515625 3.671875 C 15.933594 2.621094 14.039062 2 12 2 Z M 20.917969 12 C 20.417969 12 20 12.371094 19.941406 12.867188 C 19.9375 12.886719 19.9375 12.902344 19.9375 12.921875 C 19.871094 13.417969 20.1875 13.886719 20.675781 14.007812 L 20.695312 14.011719 C 21.269531 14.148438 21.84375 13.757812 21.917969 13.171875 C 21.921875 13.152344 21.921875 13.128906 21.925781 13.113281 C 21.996094 12.519531 21.53125 12 20.9375 12 Z M 19.65625 15.792969 C 19.296875 15.757812 18.9375 15.925781 18.734375 16.25 L 18.71875 16.273438 C 18.449219 16.695312 18.535156 17.246094 18.917969 17.5625 L 18.941406 17.582031 C 19.402344 17.960938 20.089844 17.855469 20.410156 17.355469 C 20.417969 17.34375 20.421875 17.335938 20.429688 17.324219 C 20.742188 16.828125 20.554688 16.167969 20.03125 15.90625 L 20.007812 15.894531 C 19.894531 15.835938 19.777344 15.800781 19.65625 15.792969 Z M 16.917969 18.621094 C 16.683594 18.582031 16.433594 18.625 16.21875 18.761719 L 16.203125 18.769531 C 15.777344 19.035156 15.617188 19.570312 15.832031 20.023438 L 15.847656 20.058594 C 16.101562 20.597656 16.769531 20.796875 17.273438 20.480469 C 17.28125 20.476562 17.289062 20.472656 17.296875 20.464844 C 17.792969 20.152344 17.90625 19.476562 17.546875 19.015625 L 17.523438 18.984375 C 17.367188 18.785156 17.148438 18.660156 16.917969 18.621094 Z M 16.917969 18.621094 "/>
</g>
</svg>
